<?xml version="1.0" encoding="UTF-8"?>
<svg id="Layer_1" data-name="Layer 1" xmlns="http://www.w3.org/2000/svg" viewBox="0 0 449.49 91.5">
  <defs>
    <style>
      .cls-1 {
        fill: #ed1c24;
      }

      .cls-2 {
        fill: #231f20;
      }
    </style>
  </defs>
  <g>
    <path class="cls-2" d="M47.1,90.53V29.08h-.9l-6.6,61.45h-15.3l-6.5-61.45h-1v61.45H0V0H26.6l5.4,55h.8L38.1,0h26.3V90.53h-17.3Z"/>
    <path class="cls-2" d="M71.8,16.94V0h16.8V16.94h-16.8Zm0,73.59V28.39h16.8v62.14h-16.8Z"/>
    <path class="cls-2" d="M111.83,57.39c0-4.55,.05-7.59,.15-9.14,.1-1.54,.32-2.52,.65-2.92,.34-.41,.97-.61,1.9-.61,1,0,1.67,.24,2,.73,.34,.49,.55,1.58,.65,3.29,.1,1.71,.15,5.16,.15,10.36v31.44h16.74V28.39h-16.14l-.4,6.95h-.9c-1.8-5.28-5.35-7.92-10.62-7.92-3.07,0-5.39,.77-6.97,2.31-1.57,1.54-2.62,3.84-3.16,6.88-.53,3.05-.8,7.29-.8,12.73v41.18h16.74V57.39Z"/>
    <path class="cls-2" d="M141.3,16.94V0h16.8V16.94h-16.8Zm0,73.59V28.39h16.8v62.14h-16.8Z"/>
    <path class="cls-2" d="M223.9,90.53l-4.8-55.53h-.8l-4.8,55.53h-24.4L180.7,0h18l3.5,66.06h.9L208.7,0h20.6l5.8,66.06h.9L239,0h17.8l-8.5,90.53h-24.4Z"/>
    <path class="cls-2" d="M283.5,57.39c0-4.55-.05-7.59-.15-9.14-.1-1.54-.32-2.52-.65-2.92-.33-.41-.97-.61-1.9-.61-1,0-1.67,.24-2,.73-.33,.49-.55,1.58-.65,3.29-.1,1.71-.15,5.16-.15,10.36v31.44h-16.7V0h16.7V35.33h.9c1.8-5.28,5.27-7.92,10.4-7.92,3.07,0,5.38,.77,6.95,2.31,1.57,1.54,2.62,3.84,3.15,6.88,.53,3.05,.8,7.29,.8,12.73v41.18h-16.7V57.39Z"/>
    <path class="cls-2" d="M393.19,90.53V0h16.8V90.53h-16.8Z"/>
    <path class="cls-2" d="M424.14,90.9c-3.1-.41-5.68-.89-7.75-1.46v-14.38c4.4,.49,7.83,.73,10.3,.73,2.2,0,3.73-.06,4.6-.18,.87-.12,1.48-.47,1.85-1.04,.37-.57,.55-1.5,.55-2.8,0-1.71-.18-2.78-.55-3.23-.37-.45-1.38-.87-3.05-1.28l-8.2-1.58c-2.47-.57-4.2-2.31-5.2-5.24-1-2.92-1.5-7.55-1.5-13.89,0-6.99,1.5-11.92,4.5-14.8,3-2.88,7.37-4.33,13.1-4.33,2.4,0,4.97,.18,7.7,.55,2.73,.37,4.93,.83,6.6,1.4v14.62c-4.47-.57-7.77-.85-9.9-.85-1.87,0-3.2,.08-4,.24-.8,.16-1.32,.49-1.55,.98-.23,.49-.35,1.22-.35,2.19,0,1.3,.05,2.17,.15,2.62,.1,.45,.32,.77,.65,.98,.33,.2,1.03,.43,2.1,.67l6.6,1.46c1.8,.33,3.3,.96,4.5,1.89,1.2,.93,2.2,2.7,3,5.3,.8,2.6,1.2,6.3,1.2,11.09,0,5.6-.67,9.93-2,12.98-1.33,3.05-3.22,5.14-5.65,6.27-2.43,1.14-5.48,1.71-9.15,1.71-2.6,0-5.45-.2-8.55-.61Z"/>
  </g>
  <rect class="cls-2" x="321.65" y="69.96" width="8.42" height="2.29"/>
  <rect class="cls-1" x="330.3" y="63.61" width="9.24" height="2.29"/>
  <ellipse class="cls-2" cx="330.07" cy="67.93" rx="2.66" ry="4.32"/>
  <g>
    <path class="cls-2" d="M322.29,89.02c-.81,.06-1.51,.05-1.67-.02-.13-.06,.15-.36,.5-.64,.41-.34,.04-.68-.16-.85-.66-.58-1.28-1.22-1.87-1.9-.15-.17-.49-.51-1.14-.5-1.03,.02-2.34,.06-2.51-.01-.12-.06,.57-.63,1.24-1.17,.58-.47,.35-1.07,.18-1.35-.54-.89-1.03-1.83-1.47-2.81-.09-.2-.37-.59-.99-.6-.98-.01-2.1,.05-2.25-.02-.12-.06,.75-.87,1.62-1.6,.2-.17,.52-.55,.33-1.34-.27-1.13-.58-2.28-.77-3.47-.05-.29-.29-.87-.94-.86-.89,.03-1.79,.04-1.93-.03-.12-.06,.77-.85,1.75-1.58,.26-.19,.68-.34,.76-1.36,.02-.29-.02-.58-.02-.87,0-.98,.03-1.95,.15-2.9,.11-.88-.42-1.06-.72-1.04-.9,.05-1.81,.09-1.94,.03-.13-.06,1.17-1,2.42-1.77,.25-.15,.68-.45,.92-1.24,.33-1.1,.6-2.19,1.01-3.23,.37-.94-.38-1.09-.77-1.08-.97,.02-1.75,.07-1.91,0-.15-.07,1.51-1.02,3.06-1.67,.36-.15,1.01-.44,1.63-1.42,.46-.74,.98-1.44,1.46-2.14,.47-.69-.05-.79-.36-.79-1.19,0-2.23,.09-2.4,0-.17-.08,2.46-1.09,4.05-1.49,.34-.09,.83-.21,1.46-.73,.54-.44,1.05-.92,1.61-1.32,.5-.35,.09-.42-.13-.43-1.31-.02-2.51,.1-2.7,0-.19-.09,3.35-.73,4.75-.83,1.22-.7,3.31-1.27,4.66-1.66-.35,0-.65,0-.76,.01h-7.86c-.44,.06-2.33-.03-2.68,0-.89,.1-1.51,.19-2.36,.53-.56,.23-.75,.95-.36,1.1,.42,.17,2.04,.73,1.84,.83-.16,.08-2.3,0-3.64-.09-.53-.04-1.27-.09-1.58,.14-.79,.58-.55,.45-1.29,1.2-.29,.3-.37,.93,.06,1.13,.41,.19,2.39,1.51,2.12,1.64-.23,.11-2.98,.31-3.66,.24-.67-.06-1.02-.02-1.28,.35-.65,.92-.72,1.25-1.25,2.33-.21,.43-.19,1.2,.13,1.36,.32,.16,1.85,.89,2.77,1.66-1.05-.09-3.08,.34-3.53,.34s-.81,.02-.97,.5c-.41,1.21-.48,1.68-.74,2.96-.1,.51,.08,1.03,.48,1.26,.4,.23,3.4,2.26,3.1,2.25-.51-.03-3.14,.6-3.54,.6s-.66,.32-.7,.84c-.08,.98-.04,.98-.04,1.98,0,.36,0,.72,.02,1.07,.02,.52,.48,1.09,.92,1.29,.59,.28,3.65,1.78,3.37,1.92-.22,.11-2.98,.45-3.27,.46-.64,.02-.72,.66-.65,1.19,.19,1.31,.2,1.56,.54,2.82,.1,.38,.43,.72,.77,.83s4.66,1.88,4.38,2.01c-.23,.11-2.81,.61-3.22,.63-.54,.03-.49,.8-.24,1.36,.5,1.13,.26,.78,.87,1.79,.12,.21,.68,.55,.85,.58,.34,.08,5.25,1.45,4.97,1.59-.23,.11-2.85,.24-3.33,.27s-.42,.75-.15,1.09c.71,.84,.54,.7,1.3,1.36,.43,.38,1.44,.35,1.51,.4,1.01,.16,5.26,.72,5,.85-.23,.11-1.79,.29-3.29,.46-.47-.02-.09,.64,.25,.8,.85,.43,1.72,.74,2.6,.94,.03,0,.07,.01,.1,.01,.32,0,2.29,.19,2.64,.19,.45,0,6.51,.03,9.48,.05-1.73-.5-4.04-1.26-5.64-2.25-.13-.08-.48-.27-.96-.23Z"/>
    <path class="cls-2" d="M345.03,65.75c-.03-.53-.31-.92-.7-.88,0,0-.02,.02-.03,.02-.06-.65-.13-1.3-.22-1.94,.01,0,.02,0,.03,0,.34-.14,.55-.67,.45-1.19-.23-1.3-.54-2.58-.92-3.81-.15-.49-.92-.69-.92-.69,0,0-.37-.9-.6-1.45,0,0,.02,0,.03-.01,.29-.31,.36-.91,.16-1.35-.51-1.11-1.09-2.16-1.71-3.12-.25-.38-1.18-.34-1.19-.33-.09-.14-.38-.52-.72-.92,0-.02,.02,0,.03-.02,.21-.44,.14-1.05-.15-1.36-.73-.79-1.51-1.48-2.3-2.06-.32-.23-1.72-.03-1.72-.03l-.36-.18s.01-.02,.02-.03c.1-.52-.1-1.06-.44-1.2-.86-.36-1.74-.62-2.63-.76-.26-.05-1.19-.07-1.89-.08-1.37,.47-2.69,1.12-3.94,1.93,1.2,.14-1.52,2.06-1.31,.94-.79,.61-1.54,1.3-2.24,2.05,1.15,.11-.99,2.83-1.34,1.57-.9,1.17-1.72,2.47-2.42,3.88,1.05-.31-.22,3.14-.96,2.16-.59,1.5-1.05,3.11-1.39,4.82,.98-.36,.52,2.78-.36,2.33-.15,1.29-.23,2.63-.23,4.02,0,.29,0,.57,.01,.86,.95-.4,1.41,2.48,.15,2.5,.17,1.73,.47,3.37,.88,4.91,.58-.57,2.07,1.93,.73,2.32,.5,1.37,1.1,2.66,1.79,3.85,.36-.68,2.16,1.54,1.13,1.77,.8,1.13,1.68,2.15,2.63,3.07,.16-.65,2.04,.77,1.3,1.15,1.62,1.31,3.4,2.32,5.28,3.03,.95,0,1.58,0,1.58,0,.96-.03,1.42-.14,1.82-.26,.35-.1,1.04-1.18,1.04-1.18,0,0,1.25-.06,1.51-.06,.08,0,.16-.02,.23-.07,.83-.48,1.63-1.08,2.4-1.78,.3-.27,.4-.87,.22-1.33,0-.01-.01-.01-.02-.02,.36-.36,.43-.45,.78-.86,0,.01,.59,.07,.77,.07,.15,0,.3-.08,.42-.24,.68-.88,1.31-1.85,1.87-2.9,.22-.42,.19-1.02-.09-1.37-.01-.01-.02,0-.03-.02,.26-.53,.45-.88,.68-1.44,0,0,.29-.03,.4-.03,.22,0,.44-.18,.56-.49,.44-1.17,.82-2.41,1.12-3.68,.12-.51-.06-1.06-.39-1.25,0,0-.01,0-.02,0,.13-.62,.23-1.26,.32-1.9,0,0,.01,.02,.02,.02,.04,0,.08,.01,.11,.01,.31,0,.58-.34,.63-.81,.15-1.33,.23-2.69,.23-4.04,0-.73-.02-1.45-.07-2.15Zm-14.44,17.16c-4.94,0-8.95-6.71-8.95-14.98s4.01-14.98,8.95-14.98,8.95,6.71,8.95,14.98-4,14.98-8.95,14.98Z"/>
  </g>
  <rect class="cls-2" x="366.55" y="69.96" width="8.42" height="2.29"/>
  <rect class="cls-1" x="375.2" y="63.61" width="9.24" height="2.29"/>
  <ellipse class="cls-2" cx="374.97" cy="67.93" rx="2.66" ry="4.32"/>
  <g>
    <path class="cls-2" d="M367.2,89.02c-.81,.06-1.51,.05-1.67-.02-.13-.06,.15-.36,.5-.64,.41-.34,.04-.68-.16-.85-.66-.58-1.28-1.22-1.87-1.9-.15-.17-.49-.51-1.14-.5-1.03,.02-2.34,.06-2.51-.01-.12-.06,.57-.63,1.24-1.17,.58-.47,.35-1.07,.18-1.35-.54-.89-1.03-1.83-1.47-2.81-.09-.2-.37-.59-.99-.6-.98-.01-2.1,.05-2.25-.02-.12-.06,.75-.87,1.62-1.6,.2-.17,.52-.55,.33-1.34-.27-1.13-.58-2.28-.77-3.47-.05-.29-.29-.87-.94-.86-.89,.03-1.79,.04-1.93-.03-.12-.06,.77-.85,1.75-1.58,.26-.19,.68-.34,.76-1.36,.02-.29-.02-.58-.02-.87,0-.98,.03-1.95,.15-2.9,.11-.88-.42-1.06-.72-1.04-.9,.05-1.81,.09-1.94,.03-.13-.06,1.17-1,2.42-1.77,.25-.15,.68-.45,.92-1.24,.33-1.1,.6-2.19,1.01-3.23,.37-.94-.38-1.09-.77-1.08-.97,.02-1.75,.07-1.91,0-.15-.07,1.51-1.02,3.06-1.67,.36-.15,1.01-.44,1.63-1.42,.46-.74,.98-1.44,1.46-2.14,.47-.69-.05-.79-.36-.79-1.19,0-2.23,.09-2.4,0-.17-.08,2.46-1.09,4.05-1.49,.34-.09,.83-.21,1.46-.73,.54-.44,1.05-.92,1.61-1.32,.5-.35,.09-.42-.13-.43-1.31-.02-2.51,.1-2.7,0-.19-.09,3.35-.73,4.75-.83,1.22-.7,3.31-1.27,4.66-1.66-.35,0-.65,0-.76,.01h-7.86c-.44,.06-2.33-.03-2.68,0-.89,.1-1.51,.19-2.36,.53-.56,.23-.75,.95-.36,1.1,.42,.17,2.04,.73,1.84,.83-.16,.08-2.3,0-3.64-.09-.53-.04-1.27-.09-1.58,.14-.79,.58-.55,.45-1.29,1.2-.29,.3-.37,.93,.06,1.13,.41,.19,2.39,1.51,2.12,1.64-.23,.11-2.98,.31-3.66,.24-.67-.06-1.02-.02-1.28,.35-.65,.92-.72,1.25-1.25,2.33-.21,.43-.19,1.2,.13,1.36,.32,.16,1.85,.89,2.77,1.66-1.05-.09-3.08,.34-3.53,.34s-.81,.02-.97,.5c-.41,1.21-.48,1.68-.74,2.96-.1,.51,.08,1.03,.48,1.26,.4,.23,3.4,2.26,3.1,2.25-.51-.03-3.14,.6-3.54,.6s-.66,.32-.7,.84c-.08,.98-.04,.98-.04,1.98,0,.36,0,.72,.02,1.07,.02,.52,.48,1.09,.92,1.29,.59,.28,3.65,1.78,3.37,1.92-.22,.11-2.98,.45-3.27,.46-.64,.02-.72,.66-.65,1.19,.19,1.31,.2,1.56,.54,2.82,.1,.38,.43,.72,.77,.83s4.66,1.88,4.38,2.01c-.23,.11-2.81,.61-3.22,.63-.54,.03-.49,.8-.24,1.36,.5,1.13,.26,.78,.87,1.79,.12,.21,.68,.55,.85,.58,.34,.08,5.25,1.45,4.97,1.59-.23,.11-2.85,.24-3.33,.27s-.42,.75-.15,1.09c.71,.84,.54,.7,1.3,1.36,.43,.38,1.44,.35,1.51,.4,1.01,.16,5.26,.72,5,.85-.23,.11-1.79,.29-3.29,.46-.47-.02-.09,.64,.25,.8,.85,.43,1.72,.74,2.6,.94,.03,0,.07,.01,.1,.01,.32,0,2.29,.19,2.64,.19,.45,0,6.51,.03,9.48,.05-1.73-.5-4.04-1.26-5.64-2.25-.13-.08-.48-.27-.96-.23Z"/>
    <path class="cls-2" d="M389.94,65.75c-.03-.53-.31-.92-.7-.88,0,0-.02,.02-.03,.02-.06-.65-.13-1.3-.22-1.94,.01,0,.02,0,.03,0,.34-.14,.55-.67,.45-1.19-.23-1.3-.54-2.58-.92-3.81-.15-.49-.92-.69-.92-.69,0,0-.37-.9-.6-1.45,0,0,.02,0,.03-.01,.29-.31,.36-.91,.16-1.35-.51-1.11-1.09-2.16-1.71-3.12-.25-.38-1.18-.34-1.19-.33-.09-.14-.38-.52-.72-.92,0-.02,.02,0,.03-.02,.21-.44,.14-1.05-.15-1.36-.73-.79-1.51-1.48-2.3-2.06-.32-.23-1.72-.03-1.72-.03l-.36-.18s.01-.02,.02-.03c.1-.52-.1-1.06-.44-1.2-.86-.36-1.74-.62-2.63-.76-.26-.05-1.19-.07-1.89-.08-1.37,.47-2.69,1.12-3.94,1.93,1.2,.14-1.52,2.06-1.31,.94-.79,.61-1.54,1.3-2.24,2.05,1.15,.11-.99,2.83-1.34,1.57-.9,1.17-1.72,2.47-2.42,3.88,1.05-.31-.22,3.14-.96,2.16-.59,1.5-1.05,3.11-1.39,4.82,.98-.36,.52,2.78-.36,2.33-.15,1.29-.23,2.63-.23,4.02,0,.29,0,.57,.01,.86,.95-.4,1.41,2.48,.15,2.5,.17,1.73,.47,3.37,.88,4.91,.58-.57,2.07,1.93,.73,2.32,.5,1.37,1.1,2.66,1.79,3.85,.36-.68,2.16,1.54,1.13,1.77,.8,1.13,1.68,2.15,2.63,3.07,.16-.65,2.04,.77,1.3,1.15,1.62,1.31,3.4,2.32,5.28,3.03,.95,0,1.58,0,1.58,0,.96-.03,1.42-.14,1.82-.26,.35-.1,1.04-1.18,1.04-1.18,0,0,1.25-.06,1.51-.06,.08,0,.16-.02,.23-.07,.83-.48,1.63-1.08,2.4-1.78,.3-.27,.4-.87,.22-1.33,0-.01-.01-.01-.02-.02,.36-.36,.43-.45,.78-.86,0,.01,.59,.07,.77,.07,.15,0,.3-.08,.42-.24,.68-.88,1.31-1.85,1.87-2.9,.22-.42,.19-1.02-.09-1.37-.01-.01-.02,0-.03-.02,.26-.53,.45-.88,.68-1.44,0,0,.29-.03,.4-.03,.22,0,.44-.18,.56-.49,.44-1.17,.82-2.41,1.12-3.68,.12-.51-.06-1.06-.39-1.25,0,0-.01,0-.02,0,.13-.62,.23-1.26,.32-1.9,0,0,.01,.02,.02,.02,.04,0,.08,.01,.11,.01,.31,0,.58-.34,.63-.81,.15-1.33,.23-2.69,.23-4.04,0-.73-.02-1.45-.07-2.15Zm-14.44,17.16c-4.94,0-8.95-6.71-8.95-14.98s4.01-14.98,8.95-14.98,8.95,6.71,8.95,14.98-4,14.98-8.95,14.98Z"/>
  </g>
</svg>