<?xml version="1.0" encoding="UTF-8"?>
<svg id="Layer_1" data-name="Layer 1" xmlns="http://www.w3.org/2000/svg" xmlns:xlink="http://www.w3.org/1999/xlink" viewBox="0 0 294.58 94.43">
  <defs>
    <style>
      .cls-1 {
        fill: url(#linear-gradient-2);
      }

      .cls-2 {
        fill: #fff;
      }

      .cls-3 {
        fill: #5fa9dd;
      }

      .cls-4 {
        fill: url(#radial-gradient-5);
      }

      .cls-5 {
        fill: url(#radial-gradient-4);
      }

      .cls-6 {
        fill: url(#radial-gradient-3);
      }

      .cls-6, .cls-7 {
        isolation: isolate;
        opacity: .4;
      }

      .cls-8 {
        opacity: .3;
      }

      .cls-9 {
        fill: url(#radial-gradient);
      }

      .cls-10 {
        fill: #3c5a9a;
      }

      .cls-7 {
        fill: url(#radial-gradient-2);
      }

      .cls-11 {
        fill: url(#linear-gradient-3);
      }

      .cls-12 {
        fill: url(#linear-gradient);
      }

      .cls-13 {
        fill: url(#linear-gradient-4);
      }

      .cls-14 {
        fill: #f2f2f2;
      }
    </style>
    <radialGradient id="radial-gradient" cx="227.6" cy="315.63" fx="227.6" fy="315.63" r="95.18" gradientTransform="translate(0 409.72) scale(1 -1)" gradientUnits="userSpaceOnUse">
      <stop offset="0" stop-color="#ffd677"/>
      <stop offset=".25" stop-color="#f1a454"/>
      <stop offset=".38" stop-color="#f15d3d"/>
      <stop offset=".7" stop-color="#c33087"/>
      <stop offset=".96" stop-color="#6667af"/>
      <stop offset=".98" stop-color="#5d6db3"/>
    </radialGradient>
    <linearGradient id="linear-gradient" x1="199.07" y1="403.34" x2="255.22" y2="355.86" gradientTransform="translate(0 409.72) scale(1 -1)" gradientUnits="userSpaceOnUse">
      <stop offset="0" stop-color="#ffd677"/>
      <stop offset=".25" stop-color="#f1a454"/>
      <stop offset=".38" stop-color="#f15d3d"/>
      <stop offset=".7" stop-color="#c33087"/>
      <stop offset=".96" stop-color="#6667af"/>
      <stop offset=".98" stop-color="#5d6db3"/>
    </linearGradient>
    <linearGradient id="linear-gradient-2" x1="263.34" y1="291.58" x2="251.51" y2="374.65" xlink:href="#linear-gradient"/>
    <radialGradient id="radial-gradient-2" cx="268.85" cy="380.67" fx="268.85" fy="380.67" r="3.67" xlink:href="#radial-gradient"/>
    <radialGradient id="radial-gradient-3" cx="252.83" cy="315.54" fx="252.83" fy="315.54" r="59.32" xlink:href="#radial-gradient"/>
    <radialGradient id="radial-gradient-4" cx="250.18" cy="359.69" fx="250.18" fy="359.69" r="36.23" xlink:href="#radial-gradient"/>
    <radialGradient id="radial-gradient-5" cx="250.18" cy="359.69" fx="250.18" fy="359.69" r="17.28" xlink:href="#radial-gradient"/>
    <linearGradient id="linear-gradient-3" x1="277.4" y1="387.72" x2="240.67" y2="356.88" xlink:href="#linear-gradient"/>
    <linearGradient id="linear-gradient-4" x1="254.15" y1="333.87" x2="241.08" y2="387.29" xlink:href="#linear-gradient"/>
  </defs>
  <g>
    <path class="cls-10" d="M47.21,0c26.08,0,47.22,21.14,47.22,47.22s-21.14,47.21-47.22,47.21S0,73.29,0,47.22,21.14,0,47.21,0Z"/>
    <path class="cls-2" d="M52.96,32.5h6.08v-8.99h-7.15v.03c-8.67,.31-10.44,5.18-10.6,10.3h-.02v4.49h-5.9v8.8h5.9v23.6h8.89v-23.6h7.29l1.41-8.8h-8.69v-2.71c0-1.73,1.15-3.12,2.79-3.12Z"/>
  </g>
  <g>
    <circle class="cls-3" cx="147.29" cy="47.12" r="46.88"/>
    <path class="cls-14" d="M176.01,33.93c-2.01,.89-4.17,1.49-6.44,1.76,2.31-1.39,4.09-3.58,4.93-6.2-2.17,1.28-4.56,2.22-7.12,2.72-2.04-2.18-4.96-3.54-8.18-3.54-6.19,0-11.21,5.02-11.21,11.21,0,.88,.1,1.73,.29,2.55-9.31-.47-17.57-4.93-23.1-11.71-.96,1.65-1.52,3.58-1.52,5.63,0,3.89,1.98,7.32,4.99,9.33-1.84-.06-3.57-.56-5.08-1.4,0,.05,0,.1,0,.14,0,5.43,3.86,9.96,8.99,10.99-.94,.26-1.93,.39-2.95,.39-.72,0-1.42-.07-2.11-.2,1.43,4.45,5.56,7.69,10.47,7.78-3.84,3.01-8.67,4.8-13.92,4.8-.9,0-1.8-.05-2.67-.16,4.96,3.18,10.85,5.04,17.18,5.04,20.61,0,31.89-17.08,31.89-31.89,0-.49-.01-.97-.03-1.45,2.19-1.58,4.09-3.55,5.59-5.8h0Z"/>
  </g>
  <path class="cls-9" d="M294.57,73.68c0,11.4-9.2,20.64-20.54,20.64h-53.33c-11.35,0-20.54-9.24-20.54-20.64V20.74C200.16,9.35,209.36,.1,220.7,.1h53.33c11.34,0,20.54,9.24,20.54,20.64v52.94h0Z"/>
  <path class="cls-12" d="M262.61,13.2h-30.5c-10.36,0-18.76,8.4-18.76,18.77v30.49c0,10.36,8.4,18.77,18.76,18.77h30.49c10.36,0,18.76-8.4,18.76-18.77V31.97c0-10.36-8.4-18.76-18.76-18.76Z"/>
  <path class="cls-1" d="M262.61,13.2h-30.5c-5.26,0-10.01,2.17-13.41,5.66l56.28,57.68c3.91-3.44,6.39-8.46,6.39-14.08V31.97c0-10.36-8.4-18.76-18.76-18.76Z"/>
  <path class="cls-7" d="M272.53,29.05c0,2.03-1.65,3.67-3.67,3.67s-3.68-1.64-3.68-3.67,1.65-3.67,3.68-3.67c2.02,0,3.67,1.64,3.67,3.67Z"/>
  <path class="cls-6" d="M294.57,73.68v-3.68l-34.3-34.3-24.55,24.29,34.33,34.33h3.98c11.34,0,20.54-9.24,20.54-20.64Z"/>
  <g class="cls-8">
    <path class="cls-5" d="M265.43,86.26h-30.49c-11.57,0-20.98-9.41-20.98-20.98v-30.49c0-11.57,9.41-20.98,20.98-20.98h30.49c11.57,0,20.98,9.41,20.98,20.98v30.49c0,11.57-9.41,20.98-20.98,20.98Zm-30.49-68.02c-9.12,0-16.55,7.42-16.55,16.55v30.49c0,9.12,7.42,16.55,16.55,16.55h30.49c9.12,0,16.55-7.42,16.55-16.55v-30.49c0-9.12-7.42-16.55-16.55-16.55,0,0-30.49,0-30.49,0Z"/>
  </g>
  <g class="cls-8">
    <path class="cls-4" d="M250.18,67.31c-9.53,0-17.28-7.75-17.28-17.28s7.75-17.28,17.28-17.28,17.28,7.75,17.28,17.28-7.75,17.28-17.28,17.28Zm0-30.13c-7.08,0-12.85,5.76-12.85,12.85s5.76,12.85,12.85,12.85,12.85-5.76,12.85-12.85-5.76-12.85-12.85-12.85Z"/>
  </g>
  <path class="cls-2" d="M262.61,83.44h-30.5c-11.57,0-20.98-9.41-20.98-20.98V31.97c0-11.57,9.41-20.98,20.98-20.98h30.49c11.57,0,20.98,9.41,20.98,20.98v30.49c0,11.57-9.41,20.98-20.98,20.98ZM232.12,15.42c-9.12,0-16.55,7.42-16.55,16.55v30.49c0,9.12,7.42,16.55,16.55,16.55h30.49c9.12,0,16.55-7.42,16.55-16.55V31.97c0-9.12-7.42-16.55-16.55-16.55h-30.49Z"/>
  <circle class="cls-11" cx="247.37" cy="47.22" r="15.07"/>
  <path class="cls-13" d="M232.3,47.21c0,8.32,6.75,15.06,15.07,15.06s15.07-6.74,15.07-15.07h-30.13Z"/>
  <g>
    <path class="cls-2" d="M247.37,64.5c-9.53,0-17.28-7.75-17.28-17.28s7.75-17.28,17.28-17.28,17.28,7.75,17.28,17.28-7.75,17.28-17.28,17.28Zm0-30.13c-7.08,0-12.85,5.76-12.85,12.85s5.76,12.85,12.85,12.85,12.85-5.76,12.85-12.85-5.76-12.85-12.85-12.85Z"/>
    <path class="cls-2" d="M270.87,27.39c0,2.03-1.65,3.67-3.67,3.67s-3.68-1.64-3.68-3.67,1.65-3.67,3.68-3.67c2.02,0,3.67,1.64,3.67,3.67Z"/>
  </g>
</svg>